# xmcd CD database file
#
# Track frame offsets:
#	150
#	12419
#	25890
#	39082
#	55557
#	71492
#	90884
#	109127
#	124087
#	135729
#	148390
#
# Disc length: 2137 seconds
#
# Revision: 0
# Processed by: cddbd v1.5.1PL0 Copyright (c) Steve Scherf et al.
# Submitted via: CDex 1.51
#
DISCID=8d08570b
DTITLE=Toby Beau - My Angel Baby
DYEAR=1978
DGENRE=Country
TTITLE0=Moonshine
TTITLE1=California
TTITLE2=Same Old Line
TTITLE3=Into The Night
TTITLE4=My Angel Baby
TTITLE5=Westbound Train
TTITLE6=Buckaroo
TTITLE7=Watching The World Go By
TTITLE8=Bulldog
TTITLE9=Wink Of An Eye
TTITLE10=Broken Down Cowboy
EXTD=YEAR: 1978
EXTT0=
EXTT1=
EXTT2=
EXTT3=
EXTT4=
EXTT5=
EXTT6=
EXTT7=
EXTT8=
EXTT9=
EXTT10=
PLAYORDER=
